<?xml version="1.0" encoding="UTF-8"?>
<svg width="115px" height="48px" viewBox="0 0 115 48" version="1.1" xmlns="http://www.w3.org/2000/svg" xmlns:xlink="http://www.w3.org/1999/xlink">
    <title>Trace_logo_2</title>
    <g id="Page-1" stroke="none" stroke-width="1" fill="none" fill-rule="evenodd">
        <g id="Trace_logo_2" transform="translate(0.500000, 0.000000)" fill-rule="nonzero">
            <g id="Group">
                <circle id="Oval" fill="#2099F5" cx="24" cy="24" r="24"></circle>
                <g transform="translate(10.905689, 14.449613)" fill="#FFFFFF" id="Path" stroke="#FFFFFF" stroke-width="2">
                    <g>
                        <path d="M19.9563108,19.2763865 L19.7273108,19.2763865 C17.7723108,19.1153865 16.2453108,16.9543865 15.2893108,15.1703865 C14.6052622,13.6859022 14.0453481,12.1473089 13.6153108,10.5703865 C12.3963108,6.62838653 10.8813108,1.73238653 7.72331084,0.717386533 C5.24331084,-0.0916134671 3.49931084,2.72638653 2.26731084,5.26738653 C1.60164006,6.70410738 1.028146,8.18176474 0.550310839,9.69138653 C0.501433639,9.83939885 0.341823152,9.91976373 0.193810839,9.87088653 C0.0457985261,9.82200933 -0.0345663613,9.66239885 0.014310839,9.51438653 C0.502703753,7.98219877 1.08856559,6.48280665 1.76831084,5.02538653 C2.62731084,3.26238653 4.63731084,-0.866613467 7.88531084,0.162386533 C11.3213108,1.25238653 12.8183108,6.10038653 14.1393108,10.3793865 C14.5562451,11.9250034 15.1028507,13.4326847 15.7733108,14.8863865 C16.6543108,16.5493865 18.0603108,18.5613865 19.7733108,18.7003865 C20.7774422,18.7022388 21.7280599,18.2478994 22.3573108,17.4653865 C24.2323108,15.5233865 25.2283108,12.5883865 26.0213108,10.2343865 C26.0963108,10.0093865 26.1763108,9.76038653 26.2623108,9.49238653 C26.3081505,9.34437422 26.4652985,9.2615469 26.6133108,9.30738653 C26.7613232,9.35322617 26.8441505,9.51037422 26.7983108,9.65838653 C26.7123108,9.92638653 26.6323108,10.1803865 26.5543108,10.4083865 C25.7813108,12.6983865 24.7273108,15.8293865 22.7583108,17.8623865 C22.0549251,18.6944688 21.0435081,19.2048699 19.9563108,19.2763865 Z"></path>
                    </g>
                </g>
                <path d="M62.135,41.952 C60.8537536,42.0218347 59.6140596,41.486041 58.787,40.505 L58.787,41.196 C58.788221,41.3369333 58.7339872,41.4726975 58.636,41.574 C58.5359004,41.6817687 58.3940047,41.7408614 58.247,41.736 L55.804,41.736 C55.6610439,41.7364734 55.5242476,41.6778465 55.426,41.574 C55.3221535,41.4757524 55.2635266,41.3389561 55.264,41.196 L55.264,26.94 C55.2591386,26.7929953 55.3182313,26.6510996 55.426,26.551 C55.5273025,26.4530128 55.6630667,26.398779 55.804,26.4 L58.441,26.4 C58.5859396,26.3945481 58.726698,26.4491869 58.83,26.551 C58.9318131,26.654302 58.9864519,26.7950604 58.981,26.94 L58.981,31.562 C59.802003,30.7061808 60.9499253,30.2424988 62.135,30.288 C63.3826541,30.2283873 64.5921065,30.7271948 65.435,31.649 C66.2916025,32.687819 66.7522144,33.9966655 66.735,35.343 C66.7496667,35.5303333 66.757,35.7896667 66.757,36.121 C66.757,36.4376667 66.7496667,36.6896667 66.735,36.877 C66.7521009,38.2397224 66.2922377,39.5655433 65.435,40.625 C64.5854344,41.5336795 63.3771334,42.0195629 62.135,41.952 L62.135,41.952 Z M60.968,39.058 C61.523338,39.1115522 62.0692079,38.8869144 62.426,38.458 C62.7514316,37.9620541 62.92774,37.3831516 62.934,36.79 C62.9626667,36.502 62.977,36.2786667 62.977,36.12 C62.977,35.9613333 62.9626667,35.738 62.934,35.45 C62.9267871,34.8585545 62.7505184,34.2815176 62.426,33.787 C62.0706742,33.3554803 61.5245741,33.1281259 60.968,33.18 C60.4221366,33.1443637 59.889688,33.3588886 59.521,33.763 C59.1800536,34.1775092 58.9896946,34.6953561 58.981,35.232 L58.959,36.032 L58.981,36.853 C58.9972275,37.4231646 59.1812352,37.9758834 59.51,38.442 C59.8657905,38.8737173 60.4104463,39.1038326 60.968,39.058 Z M74.209,41.952 C72.7243355,42.0499265 71.2556834,41.5970476 70.084,40.68 C69.0825853,39.7548354 68.5103477,38.455349 68.504,37.092 C68.4893333,36.9046667 68.482,36.5806667 68.482,36.12 C68.482,35.6593333 68.4893333,35.3353333 68.504,35.148 C68.5166505,33.7814137 69.1048074,32.4834749 70.124,31.573 C71.2824578,30.6612503 72.7341647,30.2042578 74.206,30.288 C75.6835226,30.2029686 77.141318,30.659863 78.306,31.573 C79.3251926,32.4834749 79.9133495,33.7814137 79.926,35.148 C79.9406667,35.3353333 79.948,35.6593333 79.948,36.12 C79.948,36.5806667 79.9406667,36.9046667 79.926,37.092 C79.9222347,38.4538346 79.35372,39.7530898 78.356,40.68 C77.1769885,41.5992847 75.7006873,42.0521072 74.209,41.952 L74.209,41.952 Z M74.209,39.317 C74.7399038,39.3587121 75.2591978,39.1465434 75.609,38.745 C75.9552889,38.2240352 76.1358655,37.6104932 76.127,36.985 C76.1416667,36.841 76.149,36.553 76.149,36.121 C76.149,35.689 76.1416667,35.401 76.127,35.257 C76.133307,34.6333621 75.9487169,34.0227146 75.598,33.507 C75.2527692,33.1022431 74.7356161,32.8858036 74.205,32.924 C73.0096667,32.924 72.3763333,33.7016667 72.305,35.257 L72.283,36.121 L72.304,36.98 C72.2817893,37.6057701 72.4597463,38.222314 72.812,38.74 C73.1607313,39.1417192 73.6784283,39.3555425 74.209,39.317 Z M87.404,41.952 C85.9200092,42.0494264 84.452158,41.5965749 83.281,40.68 C82.2806939,39.7543112 81.7095734,38.4548943 81.704,37.092 C81.6893333,36.9046667 81.682,36.5806667 81.682,36.12 C81.682,35.6593333 81.6893333,35.3353333 81.704,35.148 C81.7166505,33.7814137 82.3048074,32.4834749 83.324,31.573 C84.4819314,30.6617177 85.9328404,30.2047524 87.404,30.288 C88.8815226,30.2029686 90.339318,30.659863 91.504,31.573 C92.5231926,32.4834749 93.1113495,33.7814137 93.124,35.148 C93.1386667,35.3353333 93.146,35.6593333 93.146,36.12 C93.146,36.5806667 93.1386667,36.9046667 93.124,37.092 C93.1202347,38.4538346 92.55172,39.7530898 91.554,40.68 C90.3741998,41.599994 88.8966974,42.0528574 87.404,41.952 Z M87.404,39.317 C87.9349038,39.3587121 88.4541978,39.1465434 88.804,38.745 C89.1502889,38.2240352 89.3308655,37.6104932 89.322,36.985 C89.3366667,36.841 89.344,36.553 89.344,36.121 C89.344,35.689 89.3366667,35.401 89.322,35.257 C89.328307,34.6333621 89.1437169,34.0227146 88.793,33.507 C88.4488294,33.1030514 87.9334191,32.886349 87.404,32.923 C86.2086667,32.923 85.5753333,33.7006667 85.504,35.256 L85.482,36.12 L85.504,36.98 C85.4817893,37.6057701 85.6597463,38.222314 86.012,38.74 C86.3596452,39.1402552 86.8751357,39.353932 87.404,39.317 Z M95.828,41.736 C95.5328722,41.7286315 95.2953685,41.4911278 95.288,41.196 L95.288,26.94 C95.2831386,26.7929953 95.3422313,26.6510996 95.45,26.551 C95.5513025,26.4530128 95.6870667,26.398779 95.828,26.4 L98.334,26.4 C98.4789396,26.3945481 98.619698,26.4491869 98.723,26.551 C98.8248131,26.654302 98.8794519,26.7950604 98.874,26.94 L98.874,34.18 L101.874,30.88 C101.902667,30.8513333 101.956667,30.801 102.036,30.729 C102.108737,30.6611416 102.192633,30.6063382 102.284,30.567 C102.37949,30.5294957 102.481426,30.5111472 102.584,30.513 L105.478,30.513 C105.604209,30.5114025 105.725458,30.5620739 105.813,30.653 C105.903926,30.740542 105.954597,30.8617914 105.953,30.988 C105.959941,31.1314885 105.8951,31.2690405 105.78,31.355 L101.904,35.537 L106.332,40.915 C106.430083,40.9960045 106.492249,41.1124323 106.505,41.239 C106.510722,41.3732807 106.459883,41.5038095 106.364846,41.5988464 C106.269809,41.6938834 106.139281,41.744722 106.005,41.739 L103.045,41.739 C102.89951,41.7483626 102.754162,41.7186715 102.624,41.653 C102.502207,41.5721144 102.389842,41.477862 102.289,41.372 L98.876,37.272 L98.876,41.196 C98.877221,41.3369333 98.8229872,41.4726975 98.725,41.574 C98.6249004,41.6817687 98.4830047,41.7408614 98.336,41.736 L95.828,41.736 Z" id="Shape" fill="#8D8D8D"></path>
                <path d="M60.188,21.6 C60.0450439,21.6004734 59.9082476,21.5418465 59.81,21.438 C59.7061535,21.3397524 59.6475266,21.2029561 59.648,21.06 L59.648,9.871 L55.806,9.871 C55.6630439,9.87147344 55.5262476,9.81284647 55.428,9.709 C55.3241535,9.6107524 55.2655266,9.47395613 55.266,9.331 L55.266,7.02 C55.2611386,6.87299529 55.3202313,6.73109963 55.428,6.631 C55.5293025,6.53301282 55.6650667,6.478779 55.806,6.48 L67.427,6.48 C67.5719396,6.47454809 67.712698,6.52918693 67.816,6.631 C67.9178131,6.73430204 67.9724519,6.8750604 67.967,7.02 L67.967,9.331 C67.9724519,9.4759396 67.9178131,9.61669796 67.816,9.72 C67.712698,9.82181307 67.5719396,9.87645191 67.427,9.871 L63.582,9.871 L63.582,21.06 C63.583221,21.2009333 63.5289872,21.3366975 63.431,21.438 C63.3309004,21.5457687 63.1890047,21.6048614 63.042,21.6 L60.188,21.6 Z M69.109,21.6 C68.9639424,21.6063035 68.8228983,21.5514377 68.7202303,21.4487697 C68.6175623,21.3461017 68.5626965,21.2050576 68.569,21.06 L68.569,10.908 C68.5635481,10.7630604 68.6181869,10.622302 68.72,10.519 C68.823302,10.4171869 68.9640604,10.3625481 69.109,10.368 L71.593,10.368 C71.742988,10.3644212 71.8877725,10.423059 71.993,10.53 C72.0968465,10.6282476 72.1554734,10.7650439 72.155,10.908 L72.155,11.772 C72.9482381,10.836212 74.1293712,10.3194664 75.355,10.372 L76.305,10.372 C76.4499396,10.3665481 76.590698,10.4211869 76.694,10.523 C76.7958131,10.626302 76.8504519,10.7670604 76.845,10.912 L76.845,13.137 C76.846221,13.2779333 76.7919872,13.4136975 76.694,13.515 C76.5939004,13.6227687 76.4520047,13.6818614 76.305,13.677 L74.205,13.677 C73.7005542,13.6453173 73.2050233,13.820848 72.833,14.163 C72.490848,14.5350233 72.3153173,15.0305542 72.347,15.535 L72.347,21.06 C72.3518614,21.2070047 72.2927687,21.3489004 72.185,21.449 C72.0766515,21.5498794 71.9329835,21.604114 71.785,21.6 L69.109,21.6 Z M81.551,21.816 C80.8320119,21.8253641 80.1200107,21.6740126 79.467,21.373 C78.877656,21.1087461 78.3702577,20.6908074 77.998,20.163 C77.6489977,19.6652184 77.4640655,19.0709184 77.469,18.463 C77.4474526,17.5090276 77.9055852,16.6077832 78.689,16.063 C79.6932408,15.3844457 80.8446988,14.95492 82.048,14.81 L84.748,14.4 L84.748,14.1 C84.7834823,13.6680274 84.6604903,13.237911 84.402,12.89 C84.0867443,12.5997285 83.6623895,12.4581556 83.236,12.501 C82.9522977,12.4905895 82.6703785,12.5499951 82.415,12.674 C82.1743567,12.806382 81.9495747,12.9657423 81.745,13.149 C81.6035817,13.2767939 81.4517187,13.3925309 81.291,13.495 C81.2610843,13.6006721 81.1627465,13.6721529 81.053,13.668 L78.702,13.668 C78.5691229,13.6723172 78.4403417,13.6216729 78.346,13.528 C78.2549264,13.441865 78.2106731,13.3172862 78.227,13.193 C78.2788934,12.7110084 78.4787036,12.2568943 78.799,11.893 C79.2552497,11.3552157 79.8346931,10.9356424 80.488,10.67 C81.3735704,10.2991522 82.328368,10.1225146 83.288,10.152 C84.6996378,10.0368362 86.1029327,10.4570036 87.219,11.329 C88.0814613,12.1497163 88.544587,13.3047933 88.488,14.494 L88.488,21.06 C88.489221,21.2009333 88.4349872,21.3366975 88.337,21.438 C88.2369004,21.5457687 88.0950047,21.6048614 87.948,21.6 L85.441,21.6 C85.2980439,21.6004734 85.1612476,21.5418465 85.063,21.438 C84.9591535,21.3397524 84.9005266,21.2029561 84.901,21.06 L84.901,20.304 C84.5568234,20.7732731 84.1001495,21.1484473 83.573,21.395 C82.9411902,21.6893751 82.2498034,21.833471 81.553,21.816 L81.551,21.816 Z M82.568,19.354 C83.1725894,19.3778846 83.7585284,19.1420532 84.178,18.706 C84.6223465,18.1767299 84.8432713,17.4953061 84.794,16.806 L84.794,16.506 L82.958,16.83 C81.662,17.0606667 81.014,17.5143333 81.014,18.191 C81.0056913,18.5351766 81.1778654,18.8586666 81.468,19.044 C81.7939181,19.2583116 82.1781365,19.3665913 82.568,19.354 L82.568,19.354 Z M96.088,21.816 C94.6543792,21.881723 93.2468866,21.4163568 92.135,20.509 C91.1008864,19.5820151 90.5115242,18.2577692 90.515,16.869 L90.493,16.005 L90.515,15.119 C90.4995052,13.7271551 91.0860946,12.3964831 92.124,11.469 C93.2378264,10.5563958 94.6495008,10.0873809 96.088,10.152 C97.1593635,10.1183858 98.2229544,10.3444846 99.188,10.811 C99.9367985,11.1705769 100.582998,11.712917 101.067,12.388 C101.43106,12.877781 101.658482,13.4554801 101.726,14.062 C101.741531,14.2030246 101.689646,14.343115 101.586,14.44 C101.480773,14.546941 101.335988,14.6055788 101.186,14.602 L98.444,14.602 C98.3127623,14.6103703 98.1827852,14.5721209 98.077,14.494 C97.9765517,14.4032248 97.8955824,14.2929977 97.839,14.17 C97.7173299,13.7955199 97.4881419,13.4651276 97.18,13.22 C96.875582,13.0218307 96.5169107,12.9235982 96.154,12.939 C94.9733333,12.939 94.3613333,13.7023333 94.318,15.229 L94.296,16.05 L94.318,16.763 C94.294835,17.3755087 94.4732974,17.9786974 94.826,18.48 C95.1603652,18.8581349 95.65015,19.0613513 96.154,19.031 C96.5274637,19.0511369 96.8977452,18.9527918 97.212,18.75 C97.5115688,18.5035949 97.729757,18.1724787 97.838,17.8 C97.8945824,17.6770023 97.9755517,17.5667752 98.076,17.476 C98.1817852,17.3978791 98.3117623,17.3596297 98.443,17.368 L101.188,17.368 C101.327026,17.3660326 101.461796,17.4159473 101.566,17.508 C101.671324,17.5958592 101.730943,17.7268732 101.728,17.864 C101.684379,18.4474777 101.47865,19.0071727 101.134,19.48 C100.657367,20.1711849 100.015145,20.7319262 99.266,21.111 C98.2834031,21.6111702 97.1899266,21.8537445 96.088,21.816 Z M108.854,21.816 C107.362645,21.9008356 105.897364,21.3982897 104.772,20.416 C103.715408,19.3248513 103.153541,17.8475103 103.218,16.33 L103.218,15.574 C103.18946,14.086085 103.761935,12.6494881 104.806,11.589 C105.904929,10.5948111 107.353979,10.0782184 108.834,10.153 C109.915575,10.1175689 110.986636,10.374969 111.934,10.898 C112.756531,11.3738455 113.418152,12.0845667 113.834,12.939 C114.273488,13.8702098 114.491509,14.8904948 114.471,15.92 L114.471,16.438 C114.472324,16.5789333 114.417987,16.7146975 114.32,16.816 C114.2199,16.9237687 114.078005,16.9828614 113.931,16.978 L107.02,16.978 L107.02,17.129 C107.020712,17.7137217 107.194706,18.2851157 107.52,18.771 C107.824649,19.1897933 108.320906,19.4254966 108.838,19.397 C109.147876,19.409248 109.454538,19.3303226 109.72,19.17 C109.953152,19.016177 110.163828,18.8307416 110.346,18.619 C110.429538,18.501523 110.536013,18.4021911 110.659,18.327 C110.780209,18.2842622 110.908672,18.2659103 111.037,18.273 L113.715,18.273 C113.837474,18.2702884 113.956682,18.3126339 114.05,18.392 C114.142488,18.4691232 114.19416,18.5846476 114.19,18.705 C114.136699,19.1996291 113.911224,19.6597829 113.553,20.005 C113.037413,20.558845 112.407516,20.9939034 111.707,21.28 C110.804976,21.6573082 109.833464,21.8399565 108.856,21.816 L108.854,21.816 Z M110.668,14.839 L110.668,14.796 C110.702663,14.1996907 110.533385,13.6093349 110.188,13.122 C109.863601,12.7110623 109.360986,12.4817209 108.838,12.506 C108.321847,12.4849113 107.827268,12.7143244 107.51,13.122 C107.16249,13.6085652 106.991077,14.1989866 107.024,14.796 L107.024,14.839 L110.668,14.839 Z" id="Shape" fill="#2099F5"></path>
            </g>
        </g>
    </g>
</svg>